<?xml version="1.0" encoding="utf-8" standalone="no"?>
<!DOCTYPE svg PUBLIC "-//W3C//DTD SVG 1.1//EN"
  "http://www.w3.org/Graphics/SVG/1.1/DTD/svg11.dtd">
<svg xmlns:xlink="http://www.w3.org/1999/xlink" width="720pt" height="580.032pt" viewBox="0 0 720 580.032" xmlns="http://www.w3.org/2000/svg" version="1.1">
 <metadata>
  <rdf:RDF xmlns:dc="http://purl.org/dc/elements/1.1/" xmlns:cc="http://creativecommons.org/ns#" xmlns:rdf="http://www.w3.org/1999/02/22-rdf-syntax-ns#">
   <cc:Work>
    <dc:type rdf:resource="http://purl.org/dc/dcmitype/StillImage"/>
    <dc:date>2023-07-05T13:19:37.960189</dc:date>
    <dc:format>image/svg+xml</dc:format>
    <dc:creator>
     <cc:Agent>
      <dc:title>Matplotlib v3.7.1, https://matplotlib.org/</dc:title>
     </cc:Agent>
    </dc:creator>
   </cc:Work>
  </rdf:RDF>
 </metadata>
 <defs>
  <style type="text/css">*{stroke-linejoin: round; stroke-linecap: butt}</style>
 </defs>
 <g id="figure_1">
  <g id="patch_1">
   <path d="M 0 580.032 
L 720 580.032 
L 720 0 
L 0 0 
z
" style="fill: #ffffff"/>
  </g>
  <g id="axes_1">
   <g id="patch_2">
    <path d="M 64.964 535.879078 
L 704.88 535.879078 
L 704.88 12.180672 
L 64.964 12.180672 
z
" style="fill: #ffffff"/>
   </g>
   <g id="matplotlib.axis_1">
    <g id="xtick_1">
     <g id="line2d_1">
      <path d="M 152.224535 535.879078 
L 152.224535 12.180672 
" clip-path="url(#p5abe32561f)" style="fill: none; stroke: #b0b0b0; stroke-width: 0.8; stroke-linecap: square"/>
     </g>
     <g id="line2d_2">
      <defs>
       <path id="m6323b1ddb2" d="M 0 0 
L 0 3.5 
" style="stroke: #000000; stroke-width: 0.8"/>
      </defs>
      <g>
       <use xlink:href="#m6323b1ddb2" x="152.224535" y="535.879078" style="stroke: #000000; stroke-width: 0.8"/>
      </g>
     </g>
     <g id="text_1">
      <!-- −4 -->
      <g transform="translate(141.905004 553.51689) scale(0.14 -0.14)">
       <defs>
        <path id="DejaVuSerif-2212" d="M 678 2259 
L 4684 2259 
L 4684 1753 
L 678 1753 
L 678 2259 
z
" transform="scale(0.015625)"/>
        <path id="DejaVuSerif-34" d="M 2234 1581 
L 2234 4063 
L 641 1581 
L 2234 1581 
z
M 3609 0 
L 1484 0 
L 1484 331 
L 2234 331 
L 2234 1247 
L 197 1247 
L 197 1588 
L 2241 4750 
L 2859 4750 
L 2859 1581 
L 3750 1581 
L 3750 1247 
L 2859 1247 
L 2859 331 
L 3609 331 
L 3609 0 
z
" transform="scale(0.015625)"/>
       </defs>
       <use xlink:href="#DejaVuSerif-2212"/>
       <use xlink:href="#DejaVuSerif-34" x="83.789062"/>
      </g>
     </g>
    </g>
    <g id="xtick_2">
     <g id="line2d_3">
      <path d="M 268.573083 535.879078 
L 268.573083 12.180672 
" clip-path="url(#p5abe32561f)" style="fill: none; stroke: #b0b0b0; stroke-width: 0.8; stroke-linecap: square"/>
     </g>
     <g id="line2d_4">
      <g>
       <use xlink:href="#m6323b1ddb2" x="268.573083" y="535.879078" style="stroke: #000000; stroke-width: 0.8"/>
      </g>
     </g>
     <g id="text_2">
      <!-- −2 -->
      <g transform="translate(258.253552 553.51689) scale(0.14 -0.14)">
       <defs>
        <path id="DejaVuSerif-32" d="M 819 3553 
L 469 3553 
L 469 4384 
Q 803 4563 1142 4656 
Q 1481 4750 1806 4750 
Q 2534 4750 2956 4397 
Q 3378 4044 3378 3438 
Q 3378 2753 2422 1800 
Q 2347 1728 2309 1691 
L 1131 513 
L 3078 513 
L 3078 1088 
L 3444 1088 
L 3444 0 
L 434 0 
L 434 341 
L 1850 1753 
Q 2319 2222 2519 2614 
Q 2719 3006 2719 3438 
Q 2719 3909 2473 4175 
Q 2228 4441 1797 4441 
Q 1350 4441 1106 4219 
Q 863 3997 819 3553 
z
" transform="scale(0.015625)"/>
       </defs>
       <use xlink:href="#DejaVuSerif-2212"/>
       <use xlink:href="#DejaVuSerif-32" x="83.789062"/>
      </g>
     </g>
    </g>
    <g id="xtick_3">
     <g id="line2d_5">
      <path d="M 384.921631 535.879078 
L 384.921631 12.180672 
" clip-path="url(#p5abe32561f)" style="fill: none; stroke: #b0b0b0; stroke-width: 0.8; stroke-linecap: square"/>
     </g>
     <g id="line2d_6">
      <g>
       <use xlink:href="#m6323b1ddb2" x="384.921631" y="535.879078" style="stroke: #000000; stroke-width: 0.8"/>
      </g>
     </g>
     <g id="text_3">
      <!-- 0 -->
      <g transform="translate(380.467881 553.51689) scale(0.14 -0.14)">
       <defs>
        <path id="DejaVuSerif-30" d="M 2034 219 
Q 2513 219 2750 744 
Q 2988 1269 2988 2328 
Q 2988 3391 2750 3916 
Q 2513 4441 2034 4441 
Q 1556 4441 1318 3916 
Q 1081 3391 1081 2328 
Q 1081 1269 1318 744 
Q 1556 219 2034 219 
z
M 2034 -91 
Q 1275 -91 848 546 
Q 422 1184 422 2328 
Q 422 3475 848 4112 
Q 1275 4750 2034 4750 
Q 2797 4750 3222 4112 
Q 3647 3475 3647 2328 
Q 3647 1184 3222 546 
Q 2797 -91 2034 -91 
z
" transform="scale(0.015625)"/>
       </defs>
       <use xlink:href="#DejaVuSerif-30"/>
      </g>
     </g>
    </g>
    <g id="xtick_4">
     <g id="line2d_7">
      <path d="M 501.270179 535.879078 
L 501.270179 12.180672 
" clip-path="url(#p5abe32561f)" style="fill: none; stroke: #b0b0b0; stroke-width: 0.8; stroke-linecap: square"/>
     </g>
     <g id="line2d_8">
      <g>
       <use xlink:href="#m6323b1ddb2" x="501.270179" y="535.879078" style="stroke: #000000; stroke-width: 0.8"/>
      </g>
     </g>
     <g id="text_4">
      <!-- 2 -->
      <g transform="translate(496.816429 553.51689) scale(0.14 -0.14)">
       <use xlink:href="#DejaVuSerif-32"/>
      </g>
     </g>
    </g>
    <g id="xtick_5">
     <g id="line2d_9">
      <path d="M 617.618727 535.879078 
L 617.618727 12.180672 
" clip-path="url(#p5abe32561f)" style="fill: none; stroke: #b0b0b0; stroke-width: 0.8; stroke-linecap: square"/>
     </g>
     <g id="line2d_10">
      <g>
       <use xlink:href="#m6323b1ddb2" x="617.618727" y="535.879078" style="stroke: #000000; stroke-width: 0.8"/>
      </g>
     </g>
     <g id="text_5">
      <!-- 4 -->
      <g transform="translate(613.164977 553.51689) scale(0.14 -0.14)">
       <use xlink:href="#DejaVuSerif-34"/>
      </g>
     </g>
    </g>
    <g id="text_6">
     <!-- $\alpha (^\circ)$ -->
     <g transform="translate(370.222 571.066265) scale(0.14 -0.14)">
      <defs>
       <path id="DejaVuSerif-Italic-3b1" d="M 2597 819 
L 2406 472 
Q 2259 206 1925 31 
Q 1719 -78 1388 -78 
Q 1378 -78 1369 -78 
Q 753 -75 463 406 
Q 269 728 269 1175 
Q 269 1409 322 1675 
Q 472 2441 953 2941 
Q 1406 3409 2172 3409 
Q 2713 3409 2941 3200 
Q 3144 3013 3156 2613 
L 3159 2497 
L 3347 2844 
Q 3525 3172 3878 3334 
L 4194 3334 
L 4156 3150 
Q 3838 3056 3675 2763 
L 3178 1875 
L 3213 919 
Q 3228 428 3338 375 
Q 3375 356 3434 356 
Q 3603 356 3928 531 
L 3856 153 
Q 3509 -25 3244 -25 
Q 2966 -25 2778 169 
Q 2609 344 2603 597 
L 2597 819 
z
M 2581 1431 
L 2566 2350 
Q 2550 3081 2119 3084 
Q 1763 3084 1419 2703 
Q 1131 2388 991 1663 
Q 928 1347 928 1103 
Q 928 813 1016 622 
Q 1175 266 1550 266 
Q 1963 266 2384 1063 
L 2581 1431 
z
" transform="scale(0.015625)"/>
       <path id="DejaVuSerif-28" d="M 2041 -997 
Q 1281 -656 893 83 
Q 506 822 506 1931 
Q 506 3044 893 3783 
Q 1281 4522 2041 4863 
L 2041 4556 
Q 1559 4225 1350 3623 
Q 1141 3022 1141 1931 
Q 1141 844 1350 242 
Q 1559 -359 2041 -691 
L 2041 -997 
z
" transform="scale(0.015625)"/>
       <path id="DejaVuSerif-2218" d="M 2025 2006 
Q 2025 2197 1890 2333 
Q 1756 2469 1565 2469 
Q 1375 2469 1244 2336 
Q 1113 2203 1113 2009 
Q 1113 1816 1244 1686 
Q 1375 1556 1569 1556 
Q 1763 1556 1894 1687 
Q 2025 1819 2025 2006 
z
M 678 2006 
Q 678 2384 936 2645 
Q 1194 2906 1573 2906 
Q 1953 2906 2200 2641 
Q 2459 2388 2459 2011 
Q 2459 1634 2200 1378 
Q 1941 1122 1562 1122 
Q 1184 1122 931 1375 
Q 678 1628 678 2006 
z
" transform="scale(0.015625)"/>
       <path id="DejaVuSerif-29" d="M 453 -997 
L 453 -691 
Q 934 -359 1145 242 
Q 1356 844 1356 1931 
Q 1356 3022 1145 3623 
Q 934 4225 453 4556 
L 453 4863 
Q 1216 4522 1603 3783 
Q 1991 3044 1991 1931 
Q 1991 822 1603 83 
Q 1216 -656 453 -997 
z
" transform="scale(0.015625)"/>
      </defs>
      <use xlink:href="#DejaVuSerif-Italic-3b1" transform="translate(0 0.015625)"/>
      <use xlink:href="#DejaVuSerif-28" transform="translate(67.529297 0.015625)"/>
      <use xlink:href="#DejaVuSerif-2218" transform="translate(120.726719 36.35) scale(0.7)"/>
      <use xlink:href="#DejaVuSerif-29" transform="translate(170.913828 0.015625)"/>
     </g>
    </g>
   </g>
   <g id="matplotlib.axis_2">
    <g id="ytick_1">
     <g id="line2d_11">
      <path d="M 64.964 463.52137 
L 704.88 463.52137 
" clip-path="url(#p5abe32561f)" style="fill: none; stroke: #b0b0b0; stroke-width: 0.8; stroke-linecap: square"/>
     </g>
     <g id="line2d_12">
      <defs>
       <path id="m4890205315" d="M 0 0 
L -3.5 0 
" style="stroke: #000000; stroke-width: 0.8"/>
      </defs>
      <g>
       <use xlink:href="#m4890205315" x="64.964" y="463.52137" style="stroke: #000000; stroke-width: 0.8"/>
      </g>
     </g>
     <g id="text_7">
      <!-- −4 -->
      <g transform="translate(37.324937 468.840276) scale(0.14 -0.14)">
       <use xlink:href="#DejaVuSerif-2212"/>
       <use xlink:href="#DejaVuSerif-34" x="83.789062"/>
      </g>
     </g>
    </g>
    <g id="ytick_2">
     <g id="line2d_13">
      <path d="M 64.964 368.775805 
L 704.88 368.775805 
" clip-path="url(#p5abe32561f)" style="fill: none; stroke: #b0b0b0; stroke-width: 0.8; stroke-linecap: square"/>
     </g>
     <g id="line2d_14">
      <g>
       <use xlink:href="#m4890205315" x="64.964" y="368.775805" style="stroke: #000000; stroke-width: 0.8"/>
      </g>
     </g>
     <g id="text_8">
      <!-- −2 -->
      <g transform="translate(37.324937 374.094711) scale(0.14 -0.14)">
       <use xlink:href="#DejaVuSerif-2212"/>
       <use xlink:href="#DejaVuSerif-32" x="83.789062"/>
      </g>
     </g>
    </g>
    <g id="ytick_3">
     <g id="line2d_15">
      <path d="M 64.964 274.03024 
L 704.88 274.03024 
" clip-path="url(#p5abe32561f)" style="fill: none; stroke: #b0b0b0; stroke-width: 0.8; stroke-linecap: square"/>
     </g>
     <g id="line2d_16">
      <g>
       <use xlink:href="#m4890205315" x="64.964" y="274.03024" style="stroke: #000000; stroke-width: 0.8"/>
      </g>
     </g>
     <g id="text_9">
      <!-- 0 -->
      <g transform="translate(49.0565 279.349146) scale(0.14 -0.14)">
       <use xlink:href="#DejaVuSerif-30"/>
      </g>
     </g>
    </g>
    <g id="ytick_4">
     <g id="line2d_17">
      <path d="M 64.964 179.284675 
L 704.88 179.284675 
" clip-path="url(#p5abe32561f)" style="fill: none; stroke: #b0b0b0; stroke-width: 0.8; stroke-linecap: square"/>
     </g>
     <g id="line2d_18">
      <g>
       <use xlink:href="#m4890205315" x="64.964" y="179.284675" style="stroke: #000000; stroke-width: 0.8"/>
      </g>
     </g>
     <g id="text_10">
      <!-- 2 -->
      <g transform="translate(49.0565 184.603581) scale(0.14 -0.14)">
       <use xlink:href="#DejaVuSerif-32"/>
      </g>
     </g>
    </g>
    <g id="ytick_5">
     <g id="line2d_19">
      <path d="M 64.964 84.53911 
L 704.88 84.53911 
" clip-path="url(#p5abe32561f)" style="fill: none; stroke: #b0b0b0; stroke-width: 0.8; stroke-linecap: square"/>
     </g>
     <g id="line2d_20">
      <g>
       <use xlink:href="#m4890205315" x="64.964" y="84.53911" style="stroke: #000000; stroke-width: 0.8"/>
      </g>
     </g>
     <g id="text_11">
      <!-- 4 -->
      <g transform="translate(49.0565 89.858016) scale(0.14 -0.14)">
       <use xlink:href="#DejaVuSerif-34"/>
      </g>
     </g>
    </g>
    <g id="text_12">
     <!-- $\alpha_{qs} (^\circ)$ -->
     <g transform="translate(28.984937 294.609875) rotate(-90) scale(0.14 -0.14)">
      <defs>
       <path id="DejaVuSerif-Italic-71" d="M 2684 519 
Q 2469 206 2206 56 
Q 1944 -91 1597 -91 
Q 1047 -91 769 281 
Q 594 516 575 841 
Q 563 1031 606 1256 
Q 822 2359 1588 2928 
Q 2241 3409 3006 3413 
Q 3613 3416 3803 3322 
L 2963 -1000 
L 3516 -1000 
L 3450 -1331 
L 2322 -1331 
L 2684 519 
z
M 2916 3094 
Q 2316 3094 1850 2625 
Q 1388 2153 1219 1297 
Q 1172 1044 1184 853 
Q 1197 659 1275 528 
Q 1428 269 1828 269 
Q 2222 269 2489 583 
Q 2756 897 2872 1497 
L 3166 3003 
Q 3169 3094 2916 3094 
z
" transform="scale(0.015625)"/>
       <path id="DejaVuSerif-Italic-73" d="M 222 959 
L 553 959 
Q 541 869 541 788 
Q 541 219 1313 219 
Q 2088 219 2200 788 
Q 2209 844 2209 944 
Q 2209 1041 2103 1158 
Q 1997 1275 1550 1428 
L 1159 1569 
Q 759 1706 629 1882 
Q 500 2059 500 2263 
Q 500 2344 516 2438 
Q 606 2894 990 3153 
Q 1375 3413 1931 3413 
Q 2484 3413 3066 3144 
L 2925 2419 
L 2594 2419 
Q 2606 2491 2606 2553 
Q 2606 2781 2448 2942 
Q 2291 3103 1925 3103 
Q 1191 3103 1091 2591 
Q 1078 2538 1078 2444 
Q 1078 2347 1179 2237 
Q 1281 2128 1678 1997 
L 2106 1856 
Q 2550 1709 2716 1488 
Q 2831 1331 2831 1178 
Q 2831 522 2306 181 
Q 1894 -91 1262 -91 
Q 631 -91 72 184 
L 222 959 
z
" transform="scale(0.015625)"/>
      </defs>
      <use xlink:href="#DejaVuSerif-Italic-3b1" transform="translate(0 0.015625)"/>
      <use xlink:href="#DejaVuSerif-Italic-71" transform="translate(67.529297 -15.55625) scale(0.7)"/>
      <use xlink:href="#DejaVuSerif-Italic-73" transform="translate(112.338867 -15.55625) scale(0.7)"/>
      <use xlink:href="#DejaVuSerif-28" transform="translate(150.857031 0.015625)"/>
      <use xlink:href="#DejaVuSerif-2218" transform="translate(204.054453 36.35) scale(0.7)"/>
      <use xlink:href="#DejaVuSerif-29" transform="translate(254.241562 0.015625)"/>
     </g>
    </g>
   </g>
   <g id="line2d_21">
    <path d="M 384.921631 250.344244 
L 416.852996 224.484882 
L 448.398381 199.224414 
L 479.176471 174.868185 
L 508.815227 151.710607 
L 534.469071 131.934293 
L 558.628687 113.577754 
L 581.05268 96.824403 
L 599.56474 83.255823 
L 616.339364 71.231473 
L 629.681449 61.918532 
L 641.457907 53.962381 
L 650.418529 48.15397 
L 658.078748 43.4519 
L 663.581017 40.31972 
L 668.080414 38.028644 
L 671.052035 36.767967 
L 672.914701 36.186306 
L 674.31664 35.985145 
L 675.064365 36.084194 
L 675.55098 36.397378 
L 675.730105 36.725 
L 675.780682 37.394355 
L 675.569506 38.276666 
L 675.096766 39.371139 
L 674.060339 41.158738 
L 672.561352 43.318881 
L 670.040867 46.53763 
L 666.807731 50.324992 
L 661.998774 55.606968 
L 655.129416 62.761309 
L 646.936581 70.950445 
L 636.004522 81.524875 
L 623.46639 93.330683 
L 607.541475 107.989778 
L 589.814556 123.992894 
L 570.429124 141.210492 
L 547.135858 161.595738 
L 522.221801 183.104392 
L 495.935887 205.521547 
L 465.750691 230.962194 
L 434.58845 256.923439 
L 402.825845 283.091468 
L 370.846818 309.149967 
L 339.037925 334.783945 
L 307.783665 359.683544 
L 277.461833 383.547783 
L 248.438955 406.088195 
L 223.477282 425.201077 
L 200.128709 442.80351 
L 178.626525 458.719616 
L 161.031206 471.47049 
L 145.248177 482.623178 
L 132.843872 491.121707 
L 123.310347 497.420439 
L 115.058194 502.625006 
L 109.0356 506.195726 
L 104.005898 508.930901 
L 100.586106 510.564757 
L 97.877006 511.6074 
L 96.226033 512.01404 
L 95.290777 512.069182 
L 94.616169 511.910106 
L 94.202816 511.536954 
L 94.051091 510.950062 
L 94.161129 510.149958 
L 94.532833 509.137363 
L 95.434859 507.458295 
L 96.800003 505.405792 
L 99.154293 502.320079 
L 102.222854 498.66376 
L 106.837038 493.535944 
L 112.452026 487.618145 
L 120.240595 479.744163 
L 129.325571 470.862594 
L 141.238474 459.534472 
L 154.710118 447.019757 
L 171.621234 431.622303 
L 190.258917 414.949216 
L 212.808509 395.091917 
L 237.077799 374.02501 
L 262.824296 351.958989 
L 292.54421 326.795771 
L 323.380764 300.994733 
L 354.961211 274.867754 
L 386.903815 248.730651 
L 418.822458 222.899365 
L 450.331315 197.686138 
L 481.049512 173.395745 
L 510.605734 150.321801 
L 536.165735 130.636116 
L 560.214555 112.383177 
L 582.511906 95.745363 
L 600.897484 82.290018 
L 617.534838 70.386722 
L 630.746745 61.187155 
L 642.38621 53.349058 
L 651.222061 47.647188 
L 658.753574 43.054143 
L 664.142869 40.016982 
L 667.867035 38.128985 
L 670.883984 36.830619 
L 672.783221 36.21869 
L 674.221941 35.987209 
L 674.997354 36.063513 
L 675.511718 36.35397 
L 675.709363 36.666462 
L 675.787734 37.313167 
L 675.604345 38.172902 
L 675.159361 39.244892 
L 674.15985 41.002693 
L 672.69762 43.133288 
L 670.222767 46.315525 
L 667.034809 50.066931 
L 662.279306 55.306618 
L 655.471023 62.412998 
L 647.337589 70.55588 
L 636.470995 81.079827 
L 623.995344 92.837999 
L 608.136657 107.447285 
L 590.471148 123.404983 
L 571.141812 140.581922 
L 547.904091 160.927971 
L 523.037902 182.404101 
L 496.791702 204.795729 
L 466.640303 230.21668 
L 435.501104 256.167241 
L 403.750511 282.333726 
L 371.772317 308.39984 
L 339.953071 334.050501 
L 308.677395 358.975649 
L 278.323345 382.873994 
L 249.257834 405.456657 
L 224.248799 424.614587 
L 200.845154 442.267929 
L 179.280741 458.240296 
L 161.623808 471.045917 
L 145.774367 482.256788 
L 133.307437 490.80954 
L 122.449979 497.975644 
L 114.324832 503.072242 
L 108.413984 506.548654 
L 103.498265 509.18825 
L 100.174873 510.741734 
L 97.563199 511.703564 
L 95.990744 512.04537 
L 95.114631 512.051849 
L 94.499324 511.844124 
L 94.145377 511.422384 
L 94.05311 510.787006 
L 94.222604 509.938563 
L 94.653708 508.877819 
L 95.634757 507.134923 
L 97.078603 505.01911 
L 99.530631 501.855141 
L 102.695987 498.121728 
L 107.424745 492.903205 
L 113.152191 486.896976 
L 121.068749 478.923127 
L 131.696161 468.583805 
L 143.943353 457.000005 
L 159.559655 442.573242 
L 177.000157 426.782203 
L 196.123687 409.754707 
L 219.157273 389.55305 
L 243.847122 368.197127 
L 269.946541 345.900319 
L 299.972361 320.553226 
L 331.025032 294.643773 
L 362.729193 268.485147 
L 394.701613 242.393549 
L 426.555814 216.68437 
L 457.906749 191.668376 
L 488.375455 167.647956 
L 517.593631 144.913464 
L 542.77289 125.593225 
L 566.374953 107.75612 
L 588.163994 91.58037 
L 606.04365 78.576606 
L 622.133428 67.154948 
L 634.827205 58.405592 
L 645.92244 51.035498 
L 654.263413 45.755375 
L 660.364189 42.118631 
L 665.473669 39.316519 
L 668.960953 37.626358 
L 671.738288 36.527083 
L 673.444266 36.074998 
L 674.420963 35.985737 
L 675.13713 36.1107 
L 675.592122 36.449775 
L 675.750142 36.794633 
L 675.76905 37.489787 
L 675.526215 38.397811 
L 674.795692 39.938203 
L 673.601431 41.853091 
L 671.459457 44.768615 
L 668.601287 48.257174 
L 664.236289 53.187473 
L 658.86606 58.912568 
L 651.356275 66.568735 
L 642.541493 75.241048 
L 630.925171 86.341814 
L 617.735265 98.643146 
L 601.121124 113.818938 
L 582.756948 130.291566 
L 560.481044 149.952965 
L 536.451008 170.854103 
L 510.906941 192.786143 
L 481.364764 217.840283 
L 450.656802 243.573637 
L 419.154246 269.675144 
L 387.237893 295.829295 
L 355.293542 321.719943 
L 323.707329 347.034127 
L 303.968497 362.735562 
L 303.968497 362.735562 
" clip-path="url(#p5abe32561f)" style="fill: none; stroke: #000000; stroke-linecap: square"/>
   </g>
   <g id="patch_3">
    <path d="M 64.964 535.879078 
L 64.964 12.180672 
" style="fill: none; stroke: #000000; stroke-width: 0.8; stroke-linejoin: miter; stroke-linecap: square"/>
   </g>
   <g id="patch_4">
    <path d="M 704.88 535.879078 
L 704.88 12.180672 
" style="fill: none; stroke: #000000; stroke-width: 0.8; stroke-linejoin: miter; stroke-linecap: square"/>
   </g>
   <g id="patch_5">
    <path d="M 64.964 535.879078 
L 704.88 535.879078 
" style="fill: none; stroke: #000000; stroke-width: 0.8; stroke-linejoin: miter; stroke-linecap: square"/>
   </g>
   <g id="patch_6">
    <path d="M 64.964 12.180672 
L 704.88 12.180672 
" style="fill: none; stroke: #000000; stroke-width: 0.8; stroke-linejoin: miter; stroke-linecap: square"/>
   </g>
  </g>
 </g>
 <defs>
  <clipPath id="p5abe32561f">
   <rect x="64.964" y="12.180672" width="639.916" height="523.698406"/>
  </clipPath>
 </defs>
</svg>
